Coordinates
version=1
nRows=17
nColumns=36
inDegrees=yes

Units are S.I. units (second, meters, Newtons, ...)
If the header above contains a line with 'inDegrees', this indicates whether rotational values are in degrees (yes) or radians (no).

endheader
time	pelvis_tilt	pelvis_list	pelvis_rotation	pelvis_tx	pelvis_ty	pelvis_tz	hip_flexion_r	hip_adduction_r	hip_rotation_r	knee_angle_r	knee_angle_r_beta	ankle_angle_r	subtalar_angle_r	mtp_angle_r	hip_flexion_l	hip_adduction_l	hip_rotation_l	knee_angle_l	knee_angle_l_beta	ankle_angle_l	subtalar_angle_l	mtp_angle_l	lumbar_extension	lumbar_bending	lumbar_rotation	arm_flex_r	arm_add_r	arm_rot_r	elbow_flex_r	pro_sup_r	arm_flex_l	arm_add_l	arm_rot_l	elbow_flex_l	pro_sup_l
      0.00000000	      4.51840410	     -0.00020933	      0.84239548	      0.10252763	      1.01783484	      0.11563296	     -7.24804409	     -1.05162298	     -5.55315715	      3.72709673	      0.06505011	      8.34835009	     -0.45965245	     -5.21868702	     -5.63040123	      0.29113949	     -0.54267685	      2.75178612	      0.04802773	      8.28162300	     -4.27045013	     -5.21868702	     -9.67575829	      0.97117841	     -4.60094290	      7.26459852	     -6.80922783	     20.99366553	     22.50686007	     73.74610632	      3.60697389	    -18.39358318	     13.30775519	     31.82988436	     67.44464147
      0.01666670	      3.01808844	     -0.21680832	      0.76226499	      0.10033421	      1.01587163	      0.11460882	     -5.48682272	     -0.64987609	     -4.59170386	      3.73333954	      0.06515907	      9.85003769	      0.95239097	     -6.61246683	     -4.05106339	      0.24775756	     -0.91956557	      2.15428150	      0.03759931	      7.40032023	     -3.38143375	     -6.61246683	     -7.44768914	      1.29320891	     -4.64021889	      6.83917296	     -5.96084278	     15.41813378	     22.21400086	     77.70956945	      3.58312416	    -17.24577070	      7.08541259	     31.12526493	     69.04588818
      0.03333330	      1.88796914	      0.20078570	      0.51816026	      0.09841483	      1.01315657	      0.11540923	     -4.31110798	     -0.97027222	     -4.74220848	      3.36197393	      0.05867751	     10.17429250	      0.43355642	     -7.23354782	     -2.54531150	      0.73590560	     -1.38813164	      2.39390276	      0.04178149	      7.98923915	     -2.24588505	     -7.23354782	     -6.45348898	      0.30180125	     -4.27810414	      6.42030204	     -5.49349647	     13.44431356	     22.51030284	     77.17319263	      4.25778597	    -18.07401074	      6.88080093	     31.10221322	     67.57996057
      0.05000000	      1.87891971	      0.41071090	      0.35870731	      0.09855990	      1.01403541	      0.11536747	     -4.25319871	     -1.18646542	     -4.65138875	      3.15556699	      0.05507503	     10.53970774	      0.54887832	     -7.33171073	     -2.76226641	      1.02043609	     -1.50518725	      1.87525055	      0.03272930	      8.30572570	     -1.66154551	     -7.33171073	     -6.69978289	     -0.25827037	     -4.02483312	      6.21400277	     -5.51430964	     14.07480308	     22.66365354	     73.88964153	      4.85834457	    -19.07266871	      7.24904654	     31.40481005	     65.99261040
      0.06666670	      1.66965153	      0.50018410	      0.25364988	      0.09962927	      1.01257688	      0.11473358	     -4.12672436	     -1.25254792	     -4.69482401	      2.94124200	      0.05133436	     10.64855209	      0.53777901	     -7.42149811	     -2.63311719	      1.17214278	     -1.63986708	      1.65153191	      0.02882467	      8.78806057	     -1.19902185	     -7.42149811	     -6.64581346	     -0.48550694	     -3.91912456	      5.98928469	     -5.59200690	     14.99946262	     23.03301192	     69.48242367	      5.12827715	    -19.74570236	      7.61850891	     32.06814170	     64.04173185
      0.08333330	      1.57917872	      0.58638777	      0.21506703	      0.10124084	      1.01315604	      0.11468457	     -4.12852147	     -1.31794673	     -4.48131562	      2.83123701	      0.04941441	     10.66916146	      0.23855013	     -7.47798024	     -2.63068944	      1.29920400	     -1.47224849	      1.60238520	      0.02796690	      9.05033276	     -1.29185666	     -7.47798024	     -6.57627843	     -0.63307292	     -3.89731837	      5.70443934	     -5.63021454	     15.00394727	     23.28657206	     70.92636375	      5.24045507	    -20.12954943	      7.77638274	     32.51471785	     65.49073632
      0.10000000	      1.51622771	      0.60477937	      0.07745817	      0.10180805	      1.01377704	      0.11417709	     -4.17405332	     -1.37001927	     -4.22372188	      2.74209422	      0.04785857	     10.49268522	     -0.09256523	     -7.48615499	     -2.66392971	      1.33992178	     -1.61467576	      1.55915453	      0.02721238	      9.38449018	     -1.12193035	     -7.48615499	     -6.51675748	     -0.65718937	     -3.82262372	      5.52614103	     -5.80501386	     16.17807859	     23.39064372	     69.22914182	      5.48431653	    -20.40023266	      8.86125491	     32.91706804	     64.89054693
      0.11666670	      1.41770491	      0.62322776	      0.04646833	      0.10224690	      1.01616096	      0.11453282	     -4.20941541	     -1.39309671	     -4.26669001	      2.58102955	      0.04504746	     10.30341966	     -0.11347190	     -7.49495505	     -2.62497652	      1.36222831	     -1.62183182	      1.51213716	      0.02639177	      9.48822629	     -1.06309675	     -7.49495505	     -6.39601367	     -0.69598049	     -3.96779194	      5.50774255	     -5.82924407	     17.43613225	     23.21764707	     65.89091876	      5.66469767	    -20.49953031	      9.78145412	     33.04802968	     63.34339244
      0.13333330	      1.35735070	      0.60665947	      0.12619362	      0.10800625	      1.01457579	      0.11583852	     -4.51156211	     -1.31702792	     -4.19817631	      2.23957463	      0.03908795	     10.05033778	     -0.34005615	     -7.49733218	     -2.75145202	      1.30309111	     -1.48088451	      1.35073791	      0.02357482	      9.46232394	     -1.15815462	     -7.49733218	     -6.20229068	     -0.71709602	     -4.17242506	      5.23034126	     -5.77697955	     18.08379915	     23.07365817	     65.39469588	      5.60179568	    -20.54010749	     10.60379268	     33.10614603	     63.41715162
      0.15000000	      1.26898449	      0.61031422	      0.23174384	      0.10860689	      1.01643705	      0.11504800	     -4.77070475	     -1.27653372	     -4.16420214	      1.84112482	      0.03213369	      9.78473495	     -0.48232514	     -7.49887479	     -2.79409612	      1.28162984	     -1.38735388	      1.23495897	      0.02155410	      9.47355622	     -1.09895394	     -7.49887479	     -6.05138757	     -0.74829985	     -4.38407606	      4.83152418	     -5.68254899	     18.06989049	     23.03757304	     66.48440153	      5.62940427	    -20.41170697	     11.00948784	     33.20427338	     64.92373107
      0.16666670	      1.28831210	      0.58272809	      0.22198843	      0.10841651	      1.01678874	      0.11550400	     -5.04141075	     -1.18717112	     -3.55138587	      1.49516585	      0.02609557	      9.32437353	     -1.40180416	     -7.49946681	     -2.92410594	      1.20433571	     -2.16399107	      1.16405781	      0.02031664	      9.94938693	      0.23848478	     -7.49946681	     -6.16112742	     -0.67870188	     -5.00528876	      4.57614192	     -5.26646182	     16.40521992	     23.68750457	     63.47292417	      5.16777714	    -20.03019259	      9.80289739	     33.58772488	     62.58063313
      0.18333330	      1.14000889	      0.56975416	      0.35944235	      0.10661324	      1.01389807	      0.11530260	     -5.00172311	     -1.15069579	     -4.01356685	      1.28599848	      0.02244491	      9.61997269	     -0.67689700	     -7.49982803	     -2.81736547	      1.20201779	     -1.42467976	      1.06097067	      0.01851743	      9.51479097	     -0.83910235	     -7.49982803	     -5.86289086	     -0.71107617	     -4.76608673	      4.54208727	     -5.57484276	     19.50710699	     22.90136664	     64.09003410	      6.08569690	    -20.03710539	     13.20839198	     33.03824061	     63.46216872
      0.20000000	      1.16618687	      0.56607088	      0.39417853	      0.11073596	      1.01570425	      0.11567597	     -5.16727756	     -1.10614702	     -3.83584318	      1.10271827	      0.01924606	      9.50236847	     -0.82371788	     -7.49996704	     -2.94986137	      1.16659327	     -1.45722461	      0.98840993	      0.01725101	      9.46129583	     -0.71106926	     -7.49996704	     -5.79925854	     -0.71247419	     -5.01839944	      4.37173894	     -5.46951188	     20.08024698	     22.85985549	     63.35713572	      6.21801379	    -19.74778942	     14.33533521	     32.86684872	     63.07524886
      0.21666670	      1.17993658	      0.52320102	      0.42229208	      0.11024981	      1.01874139	      0.11553128	     -5.26919065	     -1.03468759	     -3.82397884	      0.96785796	      0.01689231	      9.50346112	     -0.64467855	     -7.49998767	     -3.04084851	      1.10471416	     -1.43285825	      0.92545900	      0.01615231	      9.42141755	     -0.65772379	     -7.49998767	     -5.81384592	     -0.64011094	     -5.25522521	      4.18818309	     -5.18677519	     18.74056242	     22.92495126	     66.38180733	      6.32515275	    -19.12087311	     13.92050593	     32.56668362	     66.41753406
      0.23333330	      1.24187170	      0.48114581	      0.45711385	      0.10960317	      1.01890240	      0.11571872	     -5.38925626	     -0.96036851	     -3.62799266	      0.83065665	      0.01449769	      9.25460792	     -0.87316573	     -7.49999839	     -3.14578140	      1.04820020	     -1.52689372	      0.91103100	      0.01590049	      9.31620151	     -0.62239634	     -7.49999839	     -5.91742172	     -0.57393470	     -5.47824933	      4.15887062	     -4.98899439	     18.98395536	     22.89007356	     66.70410583	      6.63930261	    -18.58730112	     14.92201752	     31.99189146	     66.92399881
      0.25000000	      1.21741781	      0.45851641	      0.40309188	      0.10865432	      1.01968514	      0.11554151	     -5.37465633	     -0.93852760	     -3.83775975	      0.75907983	      0.01324844	      9.11288404	     -0.56221617	     -7.49999916	     -3.17323987	      1.01889325	     -1.84403923	      0.83524248	      0.01457773	      9.25975287	     -0.35946377	     -7.49999916	     -5.93074890	     -0.51146279	     -5.65990407	      4.34605135	     -4.78376692	     19.82749345	     22.67104418	     65.08584703	      6.98779372	    -17.96373279	     16.11851427	     31.31756096	     65.21017291
      0.26666670	      1.28867091	      0.44016739	      0.44310312	      0.11022015	      1.02061026	      0.11420449	     -5.51207693	     -0.92940264	     -3.88027877	      0.67009820	      0.01169542	      8.90543416	     -0.61333979	     -7.49999961	     -3.28386171	      1.00706004	     -1.98665454	      0.76094604	      0.01328101	      9.17005029	     -0.29545314	     -7.49999961	     -6.14168906	     -0.42396602	     -5.83208244	      4.48796732	     -4.63546658	     20.48632989	     22.82033074	     63.60298006	      7.40854723	    -17.24374016	     17.12364913	     30.94438785	     63.80975163
